<svg height="512pt" viewBox="0 -24 512.00021 512" width="512pt" xmlns="http://www.w3.org/2000/svg"><path d="m9.636719 160.792969h335.222656l1.488281-10c5.25-35.21875-22.035156-66.871094-57.644531-66.871094h-222.90625c-35.609375 0-62.894531 31.652344-57.648437 66.871094zm0 0" fill="#b0f0ef"/><path d="m35.722656 335.882812 4.925782 33.070313c5.253906 35.269531 35.542968 61.378906 71.203124 61.378906h130.792969c35.660157 0 65.949219-26.109375 71.203125-61.378906l4.925782-33.070313zm0 0" fill="#b0f0ef"/><path d="m164.476562 335.882812c-18.683593 34.453126-31.933593 59.0625-22.382812 94.449219h100.550781c35.660157 0 65.949219-26.109375 71.203125-61.378906l4.925782-33.066406h-154.296876zm0 0" fill="#76e7e7"/><path d="m240.476562 117.171875c0 34.921875-28.308593 63.226563-63.230468 63.226563-34.917969 0-63.226563-28.304688-63.226563-63.226563 0-34.917969 28.308594-109.816406 63.226563-109.816406 34.921875 0 63.230468 74.898437 63.230468 109.816406zm0 0" fill="#ffaa75"/><path d="m114.019531 117.171875c0 34.917969 28.308594 63.226563 63.230469 63.226563 34.917969 0 63.226562-28.308594 63.226562-63.226563 0-9.0625-1.90625-20.8125-5.339843-33.25h-115.777344c-3.433594 12.4375-5.339844 24.1875-5.339844 33.25zm0 0" fill="#ff8c42"/><path d="m177.246094 255.472656c-8.28125 0-15-6.714844-15-15v-120.148437c0-8.285157 6.71875-15 15-15 8.285156 0 15 6.714843 15 15v120.148437c0 8.285156-6.714844 15-15 15zm0 0" fill="#516980"/><path d="m37.210938 345.882812h280.074218l29.0625-195.089843h-338.199218zm0 0" fill="#ffb3c2"/><path d="m334.894531 227.667969c-50.109375-8.417969-118.4375-8.265625-140.804687 47.351562-11.769532 29.261719-24.644532 51.4375-35.003906 70.863281h158.199218zm0 0" fill="#ff899f"/><path d="m354.851562 457.335938s-96.941406 7.894531-143.667968-56.226563c-12.097656-16.597656-5.066406-40.332031 14.128906-47.640625 18.289062-6.96875 46.777344-11.5 89.730469-4.375-1.082031 2.238281 39.808593 108.242188 39.808593 108.242188zm0 0" fill="#996acc"/><path d="m354.851562 457.335938s-94.683593 6.246093-119.625-134.621094c-3.648437-20.597656 15.050782-37.996094 35.347657-32.9375 27.039062 6.738281 61.820312 25.199218 84.277343 73.441406zm0 0" fill="#b18cd9"/><path d="m354.851562 457.335938s96.941407 7.894531 143.671876-56.226563c12.09375-16.597656 5.0625-40.332031-14.128907-47.640625-18.292969-6.96875-46.777343-11.5-89.730469-4.375 1.078126 2.238281-39.8125 108.242188-39.8125 108.242188zm0 0" fill="#996acc"/><path d="m354.851562 457.335938s94.683594 6.246093 119.625-134.621094c3.648438-20.597656-15.046874-37.996094-35.347656-32.9375-27.035156 6.738281-61.820312 25.199218-84.277344 73.441406zm0 0" fill="#b18cd9"/><path d="m413.398438 398.785156c0 32.335938-26.210938 58.550782-58.546876 58.550782-32.335937 0-58.546874-26.214844-58.546874-58.550782 0-32.332031 26.210937-150.445312 58.546874-150.445312 32.335938 0 58.546876 118.113281 58.546876 150.445312zm0 0" fill="#c7aee4"/><path d="m121.429688 249.027344c0-9.074219-9.238282-16.433594-20.640626-16.433594-11.398437 0-20.640624 7.359375-20.640624 16.433594 0 9.078125 9.242187 16.4375 20.640624 16.4375 11.402344 0 20.640626-7.359375 20.640626-16.4375zm0 0" fill="#ffdee4"/><path d="m274.347656 249.027344c0-9.074219-9.242187-16.433594-20.640625-16.433594-11.402343 0-20.640625 7.359375-20.640625 16.433594 0 9.078125 9.238282 16.4375 20.640625 16.4375 11.398438 0 20.640625-7.359375 20.640625-16.4375zm0 0" fill="#ffdee4"/><g fill="#454545"><path d="m182.371094 231.265625c-1.679688 2.464844-4.128906 2.761719-5.121094 2.761719-.996094 0-3.484375-.269532-5.125-2.761719-2.273438-3.460937-6.925781-4.425781-10.386719-2.152344-3.460937 2.273438-4.421875 6.925781-2.148437 10.386719 3.917968 5.96875 10.519531 9.527344 17.660156 9.527344 7.136719 0 13.738281-3.558594 17.660156-9.527344 2.273438-3.460938 1.308594-8.113281-2.152344-10.386719-1.269531-.832031-6.882812-2.992187-10.386718 2.152344zm0 0"/><path d="m117.828125 234.777344c-.933594-.78125-1.863281-.988282-2.386719-.988282-.523437 0-1.527344.128907-2.386718.988282-2.929688 2.929687-7.679688 2.929687-10.605469 0-2.929688-2.929688-2.929688-7.675782-.003907-10.605469 3.472657-3.472656 8.085938-5.382813 12.996094-5.382813 4.90625 0 9.523438 1.910157 12.992188 5.382813 2.929687 2.929687 2.929687 7.675781 0 10.605469-1.460938 1.464844-5.871094 3.964844-10.605469 0zm0 0"/><path d="m241.441406 234.777344c-.933594-.78125-1.863281-.988282-2.386718-.988282-.523438 0-1.527344.128907-2.386719.988282-2.929688 2.929687-7.679688 2.929687-10.605469 0-2.929688-2.929688-2.929688-7.675782-.003906-10.605469 3.472656-3.472656 8.085937-5.382813 12.996094-5.382813 4.90625 0 9.523437 1.910157 12.992187 5.382813 2.929687 2.929687 2.929687 7.675781 0 10.605469-1.460937 1.464844-5.871094 3.964844-10.605469 0zm0 0"/></g><path d="m177.238281 249.175781c7.136719 0 13.738281-3.5625 17.660157-9.53125 2.273437-3.460937 1.308593-8.113281-2.152344-10.386719-1.269532-.832031-6.882813-2.992187-10.386719 2.152344-1.679687 2.46875-4.128906 2.765625-5.121094 2.765625-.996093 0-3.484375-.273437-5.125-2.765625-2.273437-3.460937-6.921875-4.425781-10.382812-2.152344-3.464844 2.273438-4.425781 6.925782-2.152344 10.386719 3.917969 5.964844 10.519531 9.53125 17.660156 9.53125zm0 0"/><path d="m102.4375 234.921875c2.929688 2.929687 7.675781 2.929687 10.605469 0 .859375-.859375 1.863281-.988281 2.386719-.988281.523437 0 1.457031.207031 2.386718.988281 4.738282 3.964844 9.144532 1.464844 10.609375 0 2.929688-2.929687 2.929688-7.675781 0-10.605469-3.472656-3.472656-8.085937-5.382812-12.996093-5.382812-4.90625 0-9.523438 1.914062-12.992188 5.382812-2.929688 2.929688-2.929688 7.675782 0 10.605469zm0 0"/><path d="m236.65625 234.921875c.859375-.859375 1.863281-.988281 2.386719-.988281.523437 0 1.453125.207031 2.386719.988281 4.734374 3.964844 9.144531 1.464844 10.605468 0 2.929688-2.929687 2.929688-7.679687 0-10.605469-3.46875-3.472656-8.085937-5.382812-12.992187-5.382812s-9.523438 1.910156-12.992188 5.382812c-2.929687 2.925782-2.929687 7.675782 0 10.605469 2.925781 2.929687 7.675781 2.929687 10.605469 0zm0 0"/><path d="m510.363281 371.808594c-3.46875-11.695313-11.96875-20.882813-23.3125-25.207032-2.964843-1.128906-6.078125-2.140624-9.28125-3.050781 1.53125-6.253906 2.898438-12.710937 4.078125-19.386719 2.15625-12.171874-1.933594-24.453124-10.941406-32.859374-9.019531-8.417969-21.582031-11.65625-33.601562-8.660157-13.445313 3.347657-26.003907 8.742188-37.464844 16.058594-1.488282-4.234375-3.003906-8.28125-4.539063-12.066406-12.453125-30.71875-25.6875-45.652344-40.460937-45.652344-5.207032 0-10.277344 1.957031-15.203125 5.824219l14.117187-94.765625c2.820313-18.945313-2.734375-38.136719-15.242187-52.644531-12.507813-14.511719-30.667969-22.832032-49.824219-22.832032h-47.949219c-3.195312-10.421875-7.304687-20.960937-12.074219-30.582031-8.507812-17.175781-26.507812-45.984375-51.425781-45.984375-24.921875 0-42.917969 28.808594-51.429687 45.984375-4.769532 9.621094-8.875 20.160156-12.070313 30.582031h-47.953125c-19.15625 0-37.316406 8.320313-49.824218 22.832032-12.507813 14.507812-18.0625 33.699218-15.242188 52.644531l32.503906 218.15625c2.804688 18.835937 12.292969 36.058593 26.71875 48.492187 14.421875 12.4375 32.855469 19.285156 51.898438 19.285156h128.207031c16.699219 10.566407 59.683594 27.019532 114.792969 27.019532 78.246094 0 129.496094-31.5625 149.730468-59.328125 7.152344-9.816407 9.265626-22.160157 5.792969-33.859375zm-155.523437-115.824219c8.738281 0 19.449218 18.746094 26.5625 36.289063 8.199218 20.226562 15.945312 48.160156 20.71875 74.710937.730468 4.078125 4.632812 6.785156 8.707031 6.058594 4.078125-.734375 6.789063-4.632813 6.054687-8.710938-3.074218-17.109375-7.359374-34.808593-12.21875-50.832031 10.953126-7.550781 23.125-13.027344 36.265626-16.300781 7.175781-1.789063 14.375.0625 19.746093 5.074219 5.351563 4.996093 7.6875 12.023437 6.402344 19.277343-8.457031 47.769531-26.523437 83.941407-52.589844 105.710938 4.097657-8.589844 6.398438-18.199219 6.398438-28.332031 0-4.144532-3.359375-7.5-7.5-7.5-4.144531 0-7.5 3.355468-7.5 7.5 0 28.148437-22.902344 51.046874-51.046875 51.046874-28.148438 0-51.046875-22.898437-51.046875-51.046874 0-15.320313 6.421875-52.210938 16.800781-85.089844 13.476562-42.703125 26.871094-57.855469 34.246094-57.855469zm-105.835938 46.289063c5.371094-5.011719 12.566406-6.859376 19.742188-5.074219 13.136718 3.273437 25.304687 8.746093 36.253906 16.292969-10.175781 33.539062-16.207031 69.3125-16.207031 85.4375 0 10.136718 2.300781 19.742187 6.394531 28.332031-26.066406-21.769531-44.132812-57.941407-52.589844-105.710938-1.28125-7.253906 1.050782-14.28125 6.40625-19.277343zm-13.125 55.742187c5.71875 18.71875 20.109375 56.480469 55.953125 85.65625-26.285156-6.757813-56.167969-19.5625-74.601562-46.835937-9.730469-14.398438-4.949219-34.085938 18.648437-38.820313zm52.8125-266.449219c14.785156 0 28.804688 6.425782 38.460938 17.625 8.25 9.570313 12.5625 21.773438 12.292968 34.246094h-96.472656c3.28125-8.261719 4.992188-17.113281 4.992188-26.121094 0-7.476562-1.167969-16.347656-3.25-25.75zm-149.441406-38.921875c11.855469-23.925781 25.699219-37.644531 37.988281-37.644531 12.285157 0 26.132813 13.71875 37.988281 37.644531 3.714844 7.5 7.023438 15.703125 9.757813 23.921875h-95.492187c2.730468-8.21875 6.039062-16.421875 9.757812-23.921875zm-111.929688 56.546875c9.65625-11.199218 23.675782-17.625 38.464844-17.625h43.972656c-2.082031 9.402344-3.246093 18.273438-3.246093 25.75 0 4.144532 3.355469 7.5 7.5 7.5 4.140625 0 7.5-3.355468 7.5-7.5 0-7.234375 1.328125-16.207031 3.648437-25.75h104.152344c2.324219 9.542969 3.652344 18.515625 3.652344 25.75 0 9.164063-2.234375 18.113282-6.492188 26.121094h-26.734375v-22.96875c0-12.40625-10.09375-22.5-22.5-22.5s-22.5 10.09375-22.5 22.5v22.96875h-139.710937c-.269532-12.472656 4.046875-24.675781 12.292968-34.246094zm157.417969 34.246094h-15v-22.96875c0-4.136719 3.363281-7.5 7.5-7.5 4.132813 0 7.5 3.363281 7.5 7.5zm-167.898437 15h320.796875l-17.03125 114.308594c-3.699219 7.375-7.292969 16.03125-10.777344 25.953125-11.460937-7.316407-24.015625-12.707031-37.453125-16.054688-12.019531-2.996093-24.582031.242188-33.605469 8.660157-9.003906 8.40625-13.09375 20.6875-10.941406 32.859374.871094 4.90625 1.847656 9.683594 2.902344 14.363282h-187.0625zm95 264.539062c-15.449219 0-30.402344-5.554687-42.105469-15.644531-11.703125-10.089843-19.402344-24.058593-21.679687-39.34375l-2.152344-14.460937h165.128906c-20.96875 17.375-13.078125 42.324218-5.921875 52.140625 4.527344 6.214843 9.675781 11.988281 15.390625 17.308593zm380.605468-26.140624c-19.328124 26.523437-48.21875 39.988281-74.496093 46.765624 12.851562-9.363281 24.125-21.503906 33.605469-36.21875 9.09375-14.113281 16.527343-30.644531 22.246093-49.367187 34.390625 8.105469 23.027344 32.808594 18.644531 38.820313zm0 0"/></svg>